<?xml version="1.0" standalone="no"?>
<!DOCTYPE svg PUBLIC "-//W3C//DTD SVG 20010904//EN"
 "http://www.w3.org/TR/2001/REC-SVG-20010904/DTD/svg10.dtd">
<svg version="1.0" xmlns="http://www.w3.org/2000/svg"
 width="700.000000pt" height="700.000000pt" viewBox="0 0 700.000000 700.000000"
 preserveAspectRatio="xMidYMid meet">
<metadata>
Created by potrace 1.14, written by Peter Selinger 2001-2017
</metadata>
<g transform="translate(0.000000,700.000000) scale(0.100000,-0.100000)"
fill="#000000" stroke="none">
<path d="M3368 6405 c-2 -1 -52 -6 -112 -9 -61 -4 -112 -9 -115 -10 -3 -2 -31
-7 -61 -10 -95 -11 -301 -57 -419 -93 -746 -225 -1378 -748 -1735 -1434 -230
-441 -339 -898 -331 -1389 3 -191 9 -258 37 -430 45 -283 130 -546 263 -815
279 -565 720 -1013 1279 -1301 713 -366 1561 -421 2311 -149 870 316 1546
1033 1800 1910 26 88 61 233 68 280 3 17 10 59 16 95 39 240 46 587 15 799
-15 106 -37 227 -55 311 -12 52 -21 95 -21 95 1 0 -21 65 -48 145 -28 80 -52
152 -54 160 -14 48 -125 279 -186 385 -167 290 -421 592 -659 785 -23 19 -55
45 -69 58 -15 12 -67 51 -116 85 -242 168 -476 287 -741 377 -249 84 -410 118
-695 146 -68 6 -367 14 -372 9z"/>
</g>
</svg>
